<svg xmlns="http://www.w3.org/2000/svg" width="194" height="54" fill="none" viewBox="0 0 194 54">
    <rect width="193" height="53" x=".5" y=".5" fill="#FFFFF2" stroke="#1F1F1F" rx="15.5"/>
    <path fill="#1F1F1F" d="M58.541 21.8L53.693 33h-2.56l-4.832-11.2h2.8l3.408 8 3.456-8h2.576zm.916 2.592h2.496V33h-2.496v-8.608zm1.248-1.2c-.459 0-.832-.133-1.12-.4-.288-.267-.432-.597-.432-.992s.144-.725.432-.992c.288-.267.661-.4 1.12-.4.458 0 .832.128 1.12.384.288.256.432.576.432.96 0 .416-.144.763-.432 1.04-.288.267-.662.4-1.12.4zM72.7 28.728c0 .032-.016.256-.048.672h-6.512c.117.533.395.955.832 1.264.438.31.981.464 1.632.464.448 0 .843-.064 1.184-.192.352-.139.677-.352.976-.64l1.328 1.44c-.81.928-1.995 1.392-3.552 1.392-.97 0-1.83-.187-2.576-.56-.746-.384-1.323-.912-1.728-1.584s-.608-1.435-.608-2.288c0-.843.198-1.6.592-2.272.405-.683.955-1.21 1.648-1.584.704-.384 1.488-.576 2.352-.576.843 0 1.605.181 2.288.544.683.363 1.216.885 1.6 1.568.395.672.592 1.456.592 2.352zm-4.464-2.576c-.565 0-1.04.16-1.424.48-.384.32-.618.757-.704 1.312h4.24c-.085-.544-.32-.976-.704-1.296-.384-.33-.853-.496-1.408-.496zm19.794-1.76L84.91 33h-2.4l-1.936-5.344-2 5.344h-2.4l-3.104-8.608h2.352l2.032 5.824 2.112-5.824h2.112l2.048 5.824 2.096-5.824h2.208zM98.746 21.8c.992 0 1.851.165 2.576.496.736.33 1.302.8 1.696 1.408.395.608.592 1.328.592 2.16 0 .821-.197 1.541-.592 2.16-.394.608-.96 1.077-1.696 1.408-.725.32-1.584.48-2.576.48H96.49V33h-2.592V21.8h4.848zm-.144 6c.779 0 1.371-.165 1.776-.496.406-.341.608-.821.608-1.44 0-.63-.202-1.11-.608-1.44-.405-.341-.997-.512-1.776-.512H96.49V27.8h2.112zm9.067-2.272c.298-.416.698-.73 1.2-.944.512-.213 1.098-.32 1.76-.32v2.304c-.278-.021-.464-.032-.56-.032-.715 0-1.275.203-1.68.608-.406.395-.608.992-.608 1.792V33h-2.496v-8.608h2.384v1.136zm8.462 7.6c-.907 0-1.723-.187-2.448-.56-.715-.384-1.275-.912-1.68-1.584-.406-.672-.608-1.435-.608-2.288 0-.853.202-1.616.608-2.288.405-.672.965-1.195 1.68-1.568.725-.384 1.541-.576 2.448-.576.906 0 1.717.192 2.432.576.714.373 1.274.896 1.68 1.568.405.672.608 1.435.608 2.288 0 .853-.203 1.616-.608 2.288-.406.672-.966 1.2-1.68 1.584-.715.373-1.526.56-2.432.56zm0-2.048c.64 0 1.162-.213 1.568-.64.416-.437.624-1.019.624-1.744 0-.725-.208-1.301-.624-1.728-.406-.437-.928-.656-1.568-.656s-1.168.219-1.584.656c-.416.427-.624 1.003-.624 1.728 0 .725.208 1.307.624 1.744.416.427.944.64 1.584.64zm9.124-6.496h2.208v1.92h-2.144V33h-2.496v-6.496h-1.328v-1.92h1.328V24.2c0-.981.288-1.76.864-2.336.587-.576 1.408-.864 2.464-.864.374 0 .726.043 1.056.128.342.075.624.187.848.336l-.656 1.808c-.288-.203-.624-.304-1.008-.304-.757 0-1.136.416-1.136 1.248v.368zm4.733-.192h2.496V33h-2.496v-8.608zm1.248-1.2c-.459 0-.832-.133-1.12-.4-.288-.267-.432-.597-.432-.992s.144-.725.432-.992c.288-.267.661-.4 1.12-.4.459 0 .832.128 1.12.384.288.256.432.576.432.96 0 .416-.144.763-.432 1.04-.288.267-.661.4-1.12.4zm3.564-2.064h2.496V33H134.8V21.128zm13.245 7.6c0 .032-.016.256-.048.672h-6.512c.117.533.395.955.832 1.264.437.31.981.464 1.632.464.448 0 .843-.064 1.184-.192.352-.139.677-.352.976-.64l1.328 1.44c-.811.928-1.995 1.392-3.552 1.392-.971 0-1.829-.187-2.576-.56-.747-.384-1.323-.912-1.728-1.584s-.608-1.435-.608-2.288c0-.843.197-1.6.592-2.272.405-.683.955-1.21 1.648-1.584.704-.384 1.488-.576 2.352-.576.843 0 1.605.181 2.288.544.683.363 1.216.885 1.6 1.568.395.672.592 1.456.592 2.352zm-4.464-2.576c-.565 0-1.04.16-1.424.48-.384.32-.619.757-.704 1.312h4.24c-.085-.544-.32-.976-.704-1.296-.384-.33-.853-.496-1.408-.496z"/>
</svg>
