<svg width="140" height="160" viewBox="0 0 140 160" fill="none" xmlns="http://www.w3.org/2000/svg">
<g clip-path="url(#clip0)">
<g clip-path="url(#clip1)">
<rect width="140" height="160" rx="16" fill="#FFBD12"/>
<path d="M16.4139 122.8H19.0059V134H16.4139V122.8ZM26.7199 125.264C27.7866 125.264 28.6453 125.584 29.2959 126.224C29.9573 126.864 30.2879 127.813 30.2879 129.072V134H27.7919V129.456C27.7919 128.773 27.6426 128.267 27.3439 127.936C27.0453 127.595 26.6133 127.424 26.0479 127.424C25.4186 127.424 24.9173 127.621 24.5439 128.016C24.1706 128.4 23.9839 128.976 23.9839 129.744V134H21.4879V125.392H23.8719V126.4C24.2026 126.037 24.6133 125.76 25.1039 125.568C25.5946 125.365 26.1333 125.264 26.7199 125.264ZM40.9382 125.392L37.3062 134H34.7302L31.1142 125.392H33.6902L36.0742 131.248L38.5382 125.392H40.9382ZM41.9567 125.392H44.4527V134H41.9567V125.392ZM43.2047 124.192C42.746 124.192 42.3727 124.059 42.0847 123.792C41.7967 123.525 41.6527 123.195 41.6527 122.8C41.6527 122.405 41.7967 122.075 42.0847 121.808C42.3727 121.541 42.746 121.408 43.2047 121.408C43.6634 121.408 44.0367 121.536 44.3247 121.792C44.6127 122.048 44.7567 122.368 44.7567 122.752C44.7567 123.168 44.6127 123.515 44.3247 123.792C44.0367 124.059 43.6634 124.192 43.2047 124.192ZM52.3212 133.584C52.0759 133.765 51.7719 133.904 51.4092 134C51.0572 134.085 50.6839 134.128 50.2892 134.128C49.2652 134.128 48.4705 133.867 47.9052 133.344C47.3505 132.821 47.0732 132.053 47.0732 131.04V127.504H45.7452V125.584H47.0732V123.488H49.5692V125.584H51.7132V127.504H49.5692V131.008C49.5692 131.371 49.6599 131.653 49.8412 131.856C50.0332 132.048 50.2999 132.144 50.6412 132.144C51.0359 132.144 51.3719 132.037 51.6492 131.824L52.3212 133.584ZM61.8887 129.728C61.8887 129.76 61.8727 129.984 61.8407 130.4H55.3287C55.446 130.933 55.7234 131.355 56.1607 131.664C56.598 131.973 57.142 132.128 57.7927 132.128C58.2407 132.128 58.6354 132.064 58.9767 131.936C59.3287 131.797 59.654 131.584 59.9527 131.296L61.2807 132.736C60.47 133.664 59.286 134.128 57.7287 134.128C56.758 134.128 55.8994 133.941 55.1527 133.568C54.406 133.184 53.83 132.656 53.4247 131.984C53.0194 131.312 52.8167 130.549 52.8167 129.696C52.8167 128.853 53.014 128.096 53.4087 127.424C53.814 126.741 54.3634 126.213 55.0567 125.84C55.7607 125.456 56.5447 125.264 57.4087 125.264C58.2514 125.264 59.014 125.445 59.6967 125.808C60.3794 126.171 60.9127 126.693 61.2967 127.376C61.6914 128.048 61.8887 128.832 61.8887 129.728ZM57.4247 127.152C56.8594 127.152 56.3847 127.312 56.0007 127.632C55.6167 127.952 55.382 128.389 55.2967 128.944H59.5367C59.4514 128.4 59.2167 127.968 58.8327 127.648C58.4487 127.317 57.9794 127.152 57.4247 127.152ZM73.6337 133.584C73.3884 133.765 73.0844 133.904 72.7217 134C72.3697 134.085 71.9964 134.128 71.6017 134.128C70.5777 134.128 69.783 133.867 69.2177 133.344C68.663 132.821 68.3857 132.053 68.3857 131.04V127.504H67.0577V125.584H68.3857V123.488H70.8817V125.584H73.0257V127.504H70.8817V131.008C70.8817 131.371 70.9724 131.653 71.1537 131.856C71.3457 132.048 71.6124 132.144 71.9537 132.144C72.3484 132.144 72.6844 132.037 72.9617 131.824L73.6337 133.584ZM78.8652 134.128C77.9585 134.128 77.1425 133.941 76.4172 133.568C75.7025 133.184 75.1425 132.656 74.7372 131.984C74.3319 131.312 74.1292 130.549 74.1292 129.696C74.1292 128.843 74.3319 128.08 74.7372 127.408C75.1425 126.736 75.7025 126.213 76.4172 125.84C77.1425 125.456 77.9585 125.264 78.8652 125.264C79.7719 125.264 80.5825 125.456 81.2972 125.84C82.0119 126.213 82.5719 126.736 82.9772 127.408C83.3825 128.08 83.5852 128.843 83.5852 129.696C83.5852 130.549 83.3825 131.312 82.9772 131.984C82.5719 132.656 82.0119 133.184 81.2972 133.568C80.5825 133.941 79.7719 134.128 78.8652 134.128ZM78.8652 132.08C79.5052 132.08 80.0279 131.867 80.4332 131.44C80.8492 131.003 81.0572 130.421 81.0572 129.696C81.0572 128.971 80.8492 128.395 80.4332 127.968C80.0279 127.531 79.5052 127.312 78.8652 127.312C78.2252 127.312 77.6972 127.531 77.2812 127.968C76.8652 128.395 76.6572 128.971 76.6572 129.696C76.6572 130.421 76.8652 131.003 77.2812 131.44C77.6972 131.867 78.2252 132.08 78.8652 132.08ZM93.9448 134.128C93.0275 134.128 92.2008 133.941 91.4648 133.568C90.7395 133.184 90.1688 132.656 89.7528 131.984C89.3475 131.312 89.1448 130.549 89.1448 129.696C89.1448 128.843 89.3475 128.08 89.7528 127.408C90.1688 126.736 90.7395 126.213 91.4648 125.84C92.2008 125.456 93.0275 125.264 93.9448 125.264C94.8515 125.264 95.6408 125.456 96.3128 125.84C96.9955 126.213 97.4915 126.752 97.8008 127.456L95.8648 128.496C95.4168 127.707 94.7715 127.312 93.9288 127.312C93.2781 127.312 92.7395 127.525 92.3128 127.952C91.8861 128.379 91.6728 128.96 91.6728 129.696C91.6728 130.432 91.8861 131.013 92.3128 131.44C92.7395 131.867 93.2781 132.08 93.9288 132.08C94.7821 132.08 95.4275 131.685 95.8648 130.896L97.8008 131.952C97.4915 132.635 96.9955 133.168 96.3128 133.552C95.6408 133.936 94.8515 134.128 93.9448 134.128ZM104.407 125.264C105.474 125.264 106.333 125.584 106.983 126.224C107.645 126.864 107.975 127.813 107.975 129.072V134H105.479V129.456C105.479 128.773 105.33 128.267 105.031 127.936C104.733 127.595 104.301 127.424 103.735 127.424C103.106 127.424 102.605 127.621 102.231 128.016C101.858 128.4 101.671 128.976 101.671 129.744V134H99.1754V122.128H101.671V126.288C102.002 125.957 102.402 125.707 102.871 125.536C103.341 125.355 103.853 125.264 104.407 125.264ZM113.71 125.264C115.043 125.264 116.067 125.584 116.782 126.224C117.497 126.853 117.854 127.808 117.854 129.088V134H115.518V132.928C115.049 133.728 114.174 134.128 112.894 134.128C112.233 134.128 111.657 134.016 111.166 133.792C110.686 133.568 110.318 133.259 110.062 132.864C109.806 132.469 109.678 132.021 109.678 131.52C109.678 130.72 109.977 130.091 110.574 129.632C111.182 129.173 112.115 128.944 113.374 128.944H115.358C115.358 128.4 115.193 127.984 114.862 127.696C114.531 127.397 114.035 127.248 113.374 127.248C112.915 127.248 112.462 127.323 112.014 127.472C111.577 127.611 111.203 127.803 110.894 128.048L109.998 126.304C110.467 125.973 111.027 125.717 111.678 125.536C112.339 125.355 113.017 125.264 113.71 125.264ZM113.518 132.448C113.945 132.448 114.323 132.352 114.654 132.16C114.985 131.957 115.219 131.664 115.358 131.28V130.4H113.646C112.622 130.4 112.11 130.736 112.11 131.408C112.11 131.728 112.233 131.984 112.478 132.176C112.734 132.357 113.081 132.448 113.518 132.448ZM125.665 133.584C125.42 133.765 125.116 133.904 124.753 134C124.401 134.085 124.028 134.128 123.633 134.128C122.609 134.128 121.814 133.867 121.249 133.344C120.694 132.821 120.417 132.053 120.417 131.04V127.504H119.089V125.584H120.417V123.488H122.913V125.584H125.057V127.504H122.913V131.008C122.913 131.371 123.004 131.653 123.185 131.856C123.377 132.048 123.644 132.144 123.985 132.144C124.38 132.144 124.716 132.037 124.993 131.824L125.665 133.584Z" fill="white"/>
<path d="M93.4554 54.4404C92.5445 54.44 91.6353 54.5222 90.7392 54.6858V48.2209C90.7392 45.2169 79.6033 42.7883 65.8696 42.7883C52.1359 42.7883 41 45.2169 41 48.2209V85.5295C41 97.9601 59.6501 97.9601 65.8696 97.9601C72.0891 97.9601 90.7392 97.9601 90.7392 85.5295V85.2672C91.6359 85.4267 92.5447 85.5088 93.4554 85.5126C95.4968 85.5126 97.5181 85.1105 99.4041 84.3293C101.29 83.5481 103.004 82.4031 104.447 80.9597C105.891 79.5162 107.036 77.8026 107.817 75.9167C108.598 74.0307 109 72.0094 109 69.968C109 67.9267 108.598 65.9053 107.817 64.0194C107.036 62.1334 105.891 60.4198 104.447 58.9764C103.004 57.5329 101.29 56.3879 99.4041 55.6067C97.5181 54.8255 95.4968 54.4235 93.4554 54.4235V54.4404ZM80.4326 52.2657C75.5983 52.8252 70.7361 53.1077 65.8696 53.1119C61.0031 53.1072 56.1409 52.8247 51.3066 52.2657C43.327 51.2503 42.4047 49.7271 42.4047 48.644C42.4047 47.5609 43.3186 46.0123 51.3066 44.9969C60.9873 43.9025 70.7604 43.9025 80.441 44.9969C88.4291 46.0123 89.3514 47.5355 89.3514 48.6101C89.3514 49.6848 88.4206 51.2164 80.4326 52.2657ZM93.4554 78.7261C92.5329 78.7266 91.6161 78.581 90.7392 78.2946V61.6753C91.9407 61.2831 93.213 61.1561 94.4683 61.3031C95.7236 61.4501 96.9322 61.8675 98.0106 62.5267C99.089 63.1858 100.012 64.071 100.715 65.1212C101.418 66.1714 101.885 67.3616 102.084 68.6098C102.283 69.8579 102.209 71.1344 101.867 72.3511C101.525 73.5678 100.923 74.6959 100.102 75.6575C99.2822 76.6191 98.2632 77.3914 97.1156 77.9212C95.9681 78.451 94.7194 78.7256 93.4554 78.7261Z" fill="white"/>
<path d="M85.7128 49.287C86.2769 49.1353 86.8178 48.9075 87.3206 48.6101C86.8975 48.3308 85.5436 47.6708 81.6595 47.07C76.4279 46.3484 71.1506 46.009 65.8696 46.0546C60.5886 46.009 55.3113 46.3484 50.0796 47.07C46.1956 47.6708 44.8417 48.3308 44.4102 48.6101C44.9173 48.9048 45.4606 49.1324 46.0264 49.287C49.8342 48.1955 57.2892 47.4508 65.8696 47.4508C74.45 47.4508 81.9049 48.1955 85.7128 49.287Z" fill="white"/>
<path d="M63.0264 35.9003C63.3686 35.7532 63.6669 35.52 63.8923 35.2234C64.1177 34.9269 64.2625 34.577 64.3126 34.2079C64.3126 32.7947 62.0363 31.627 59.1085 31.4747C61.4017 30.4677 62.8571 28.9869 62.8571 27.3368C62.8571 24.299 57.9662 21.8365 51.9328 21.8365C45.8995 21.8365 41 24.2651 41 27.3029C41 30.3408 45.891 32.8032 51.9328 32.8032C52.4744 32.8032 53.0075 32.8032 53.5321 32.7355C53.2902 32.8943 53.0881 33.1067 52.9413 33.3561C52.7946 33.6056 52.7072 33.8854 52.6859 34.174C52.6859 35.6972 55.2922 36.9242 58.5077 36.9242H58.6939C58.5771 37.1372 58.5132 37.3752 58.5077 37.618C58.5077 38.7519 59.8193 39.6743 61.4271 39.6743C63.0348 39.6743 64.338 38.7519 64.338 37.618C64.3072 37.236 64.1672 36.871 63.9346 36.5664C63.7021 36.2618 63.3868 36.0306 63.0264 35.9003V35.9003Z" fill="white"/>
<path d="M82.9627 33.7341C82.9627 31.4409 80.0095 29.5708 76.3624 29.5708C72.7153 29.5708 69.7537 31.4409 69.7537 33.7341C69.7962 34.3306 69.9892 34.9066 70.3148 35.4083C70.6403 35.91 71.0878 36.3209 71.6153 36.6027C71.1295 36.7325 70.6933 37.0037 70.3618 37.3818C70.0304 37.76 69.8187 38.228 69.7537 38.7266C69.7537 40.1059 71.446 41.2229 73.5277 41.2229C75.6093 41.2229 77.3017 40.1059 77.3017 38.7266C77.2924 38.4295 77.2111 38.1391 77.0648 37.8804C80.3818 37.6519 82.9627 35.8834 82.9627 33.7341Z" fill="white"/>
</g>
</g>
<defs>
<clipPath id="clip0">
<rect width="140" height="160" fill="white"/>
</clipPath>
<clipPath id="clip1">
<rect width="141" height="159" fill="white"/>
</clipPath>
</defs>
</svg>
