<svg width="95" height="84" viewBox="0 0 95 84" fill="none" xmlns="http://www.w3.org/2000/svg">
<path d="M81.1683 83.4991H86.694L82.7849 79.5735C80.138 76.9152 78.4864 73.4587 78.0426 69.713L78.0062 69.406L78.2644 69.2359C89.1241 62.0789 94.4991 51.738 94.4991 40.9179C94.4991 20.9343 76.1855 0.500884 47.339 0.500884C16.7549 0.500884 0.500885 19.2977 0.500885 39.1399C0.500885 59.1146 16.929 77.8991 47.339 77.8991C52.6646 77.8991 58.2226 77.1848 63.1803 75.8758L63.4635 75.801L63.6675 76.0112C68.3093 80.7925 74.5945 83.4991 81.1683 83.4991Z" fill="#FFFFF2" stroke="black" stroke-width="1.00177"/>
<path d="M32.7129 38.0868C32.7129 41.8262 29.6949 44.854 25.9766 44.854C22.2582 44.854 19.2402 41.8262 19.2402 38.0868C19.2402 34.3475 22.2582 31.3197 25.9766 31.3197C29.6949 31.3197 32.7129 34.3475 32.7129 38.0868Z" fill="black" stroke="black"/>
<path d="M54.2363 38.0868C54.2363 41.8262 51.2184 44.854 47.5 44.854C43.7816 44.854 40.7637 41.8262 40.7637 38.0868C40.7637 34.3475 43.7816 31.3197 47.5 31.3197C51.2184 31.3197 54.2363 34.3475 54.2363 38.0868Z" fill="black" stroke="black"/>
<path d="M75.7598 38.0868C75.7598 41.8262 72.7418 44.854 69.0234 44.854C65.3051 44.854 62.2871 41.8262 62.2871 38.0868C62.2871 34.3475 65.3051 31.3197 69.0234 31.3197C72.7418 31.3197 75.7598 34.3475 75.7598 38.0868Z" fill="black" stroke="black"/>
</svg>
