<svg width="19" height="24" viewBox="0 0 19 24" fill="none" xmlns="http://www.w3.org/2000/svg">
<path d="M18.9758 5.70576C18.9274 4.14499 17.8624 2.73774 16.1924 1.71429C14.4739 0.665245 12.0777 0 9.46375 0C4.21155 0 -0.0241005 2.60981 0.000103215 5.8081C0.000103215 5.8081 0.000103215 5.8081 0.000103215 5.83369V8.90405V8.95522V11.9744V12.0256V15.0448V15.0959V18.1663C0.000103215 19.6503 0.944047 21.1343 2.80773 22.2857C4.67141 23.4115 7.11599 24 9.53636 24C11.9809 24 14.4013 23.4371 16.2408 22.2857C18.0803 21.1599 19 19.6503 19 18.1663V15.0959V14.9168V12.0256V11.8465V8.95522V8.77612L18.9758 5.70576ZM6.17204 8.13646C6.26886 7.95736 6.34147 7.75266 6.43828 7.57356C6.5351 7.34328 6.65612 7.3177 6.97077 7.44563C7.52745 7.62473 8.13254 7.72708 8.76184 7.77825C9.1733 7.80384 9.56056 7.77825 9.92362 7.67591C10.5771 7.4968 10.7223 7.03625 10.2383 6.7548C10.2141 6.72921 10.1899 6.72921 10.1414 6.70362C9.97202 6.55011 9.72999 6.49893 9.48795 6.42217C8.85865 6.26866 8.22936 6.14072 7.64847 5.91045C7.35803 5.8081 7.11599 5.68017 6.89815 5.55224C6.41408 5.2452 6.12364 4.88699 6.17204 4.37527C6.24465 3.58209 6.97077 3.09595 8.15675 2.8145C8.64082 2.71215 8.64082 2.71215 8.64082 2.40512C8.64082 2.30277 8.64082 2.20043 8.64082 2.09808C8.64082 1.8678 8.71343 1.81663 9.10069 1.81663C9.22171 1.81663 9.34273 1.81663 9.46375 1.81663C9.87521 1.81663 10.0688 1.81663 10.1657 1.8678C10.2625 1.91898 10.2625 2.04691 10.2625 2.30277C10.2625 2.48188 10.2625 2.58422 10.3593 2.63539C10.4319 2.68657 10.5771 2.68657 10.8434 2.71215C11.279 2.76333 11.7147 2.84009 12.1262 2.94243C12.1988 2.96802 12.2472 2.9936 12.2956 3.01919C12.3924 3.07036 12.4166 3.14712 12.3682 3.24947C12.2714 3.45416 12.1746 3.68443 12.0535 3.88913C11.9567 4.09382 11.8357 4.1194 11.5211 4.01706C10.8918 3.83795 10.2141 3.76119 9.51215 3.78678C9.31852 3.78678 9.1491 3.81237 8.97967 3.86354C8.39878 4.01706 8.30197 4.40085 8.71343 4.65672C8.73764 4.6823 8.76184 4.6823 8.81025 4.70789C9.07649 4.83582 9.36693 4.93817 9.68158 5.01493C10.2141 5.14286 10.7707 5.27079 11.279 5.44989C11.5453 5.55224 11.7873 5.65458 11.9809 5.78252C13.0217 6.42217 13.1669 7.39446 12.1988 8.11087C11.7873 8.41791 11.2548 8.6226 10.6255 8.72495C10.3593 8.77612 10.2383 8.85288 10.2383 9.03198C10.2625 9.21109 10.2383 9.36461 10.2383 9.54371C10.2383 9.69723 10.1172 9.77399 9.87521 9.77399C9.58476 9.77399 9.27012 9.77399 8.97967 9.77399C8.85865 9.77399 8.76184 9.7484 8.68923 9.72281C8.61662 9.67164 8.59241 9.62047 8.56821 9.54371C8.56821 9.41578 8.56821 9.28785 8.56821 9.15991C8.56821 9.0064 8.56821 8.92964 8.4956 8.90405C8.42299 8.87846 8.32617 8.85288 8.10834 8.82729C7.55165 8.77612 6.99497 8.69936 6.48669 8.54584C6.34147 8.49467 6.24466 8.46908 6.19625 8.4435C6.09943 8.36674 6.09943 8.28998 6.17204 8.13646ZM9.51215 11.6418C12.9975 11.6418 16.0229 10.4904 17.6688 8.77612V8.95522C17.6688 9.97868 16.8943 11.0277 15.5631 11.8721C13.9656 12.8443 11.8115 13.3817 9.51215 13.3817C7.2128 13.3817 5.03447 12.8443 3.43703 11.8721C2.08162 11.0533 1.2829 9.97868 1.2829 8.95522V8.75053C1.69436 9.1855 2.20264 9.59488 2.78353 9.92751C4.50199 11.0021 6.89815 11.6418 9.51215 11.6418ZM15.5631 18.0128C13.9656 18.9851 11.8115 19.5224 9.51215 19.5224C7.2128 19.5224 5.03447 18.9851 3.43703 18.0128C2.08162 17.194 1.2829 16.1194 1.2829 15.0959V14.9424C1.69436 15.3774 2.17844 15.7612 2.78353 16.145C4.64721 17.2708 7.09178 17.8593 9.51215 17.8593C11.9567 17.8593 14.3771 17.2964 16.2166 16.145C16.7975 15.7868 17.2573 15.403 17.6688 14.9936V15.1215C17.693 16.145 16.9185 17.194 15.5631 18.0128ZM15.5631 14.9424C13.9656 15.9147 11.8115 16.452 9.51215 16.452C7.2128 16.452 5.03447 15.9147 3.43703 14.9424C2.08162 14.1237 1.2829 13.049 1.2829 12.0256V11.8721C1.69436 12.307 2.17844 12.6908 2.78353 13.0746C4.64721 14.2004 7.09178 14.7889 9.51215 14.7889C11.9567 14.7889 14.3771 14.226 16.2166 13.0746C16.7975 12.7164 17.2573 12.3326 17.6688 11.9232V12.0512C17.693 13.049 16.9185 14.1237 15.5631 14.9424ZM15.5631 21.0832C13.9656 22.0554 11.8115 22.5927 9.51215 22.5927C7.2128 22.5927 5.03447 22.0554 3.43703 21.0832C2.08162 20.2644 1.2829 19.1898 1.2829 18.1663V18.0128C1.69436 18.4478 2.17844 18.8316 2.78353 19.2153C4.64721 20.3411 7.09178 20.9296 9.51215 20.9296C11.9567 20.9296 14.3771 20.3667 16.2166 19.2153C16.7975 18.8571 17.2573 18.4733 17.6688 18.064V18.1919C17.693 19.2153 16.9185 20.2644 15.5631 21.0832Z" fill="black"/>
</svg>
