<svg width="140" height="160" viewBox="0 0 140 160" fill="none" xmlns="http://www.w3.org/2000/svg">
<g clip-path="url(#clip0)">
<rect width="140" height="160" rx="16" fill="#FF89BB"/>
<path d="M59.372 80.408C62.7006 80.408 65.399 77.7096 65.399 74.381C65.399 71.0524 62.7006 68.354 59.372 68.354C56.0434 68.354 53.345 71.0524 53.345 74.381C53.345 77.7096 56.0434 80.408 59.372 80.408Z" fill="white"/>
<path d="M80.963 80.408C84.2917 80.408 86.99 77.7096 86.99 74.381C86.99 71.0524 84.2917 68.354 80.963 68.354C77.6344 68.354 74.936 71.0524 74.936 74.381C74.936 77.7096 77.6344 80.408 80.963 80.408Z" fill="white"/>
<path d="M63.132 50.711H77.362C77.932 50.711 78.397 50.247 78.397 49.676V44.931H62.097V49.676C62.098 50.247 62.561 50.711 63.132 50.711Z" fill="white"/>
<path d="M108.276 53.599L108.274 53.586H108.273C106.998 45.878 100.305 40 92.237 40C87.663 40 83.533 41.891 80.579 44.931H80.467V49.676C80.467 51.389 79.074 52.781 77.363 52.781H63.133C61.421 52.781 60.029 51.388 60.029 49.676V44.931H59.917C56.963 41.891 52.833 40 48.259 40C40.191 40 33.498 45.878 32.223 53.586H32.22L32.218 53.599L28 84.78C28 91.036 33.071 96.108 39.328 96.108C43.247 96.108 46.7 94.118 48.733 91.093H48.734L55.025 80.819C52.979 79.407 51.633 77.049 51.633 74.381C51.633 70.07 55.14 66.563 59.451 66.563C63.719 66.563 67.193 70.001 67.264 74.252H73.229C73.299 70.001 76.774 66.563 81.042 66.563C85.354 66.563 88.86 70.071 88.86 74.381C88.86 77.05 87.514 79.407 85.468 80.819L91.759 91.093H91.76C93.793 94.117 97.247 96.108 101.166 96.108C107.422 96.108 112.493 91.036 112.493 84.78L108.276 53.599ZM56.037 56.992C56.037 58.096 55.141 58.992 54.037 58.992H50.239V62.79C50.239 63.894 49.343 64.79 48.239 64.79H46.775C45.671 64.79 44.775 63.894 44.775 62.79V58.992H40.977C39.873 58.992 38.977 58.096 38.977 56.992V55.527C38.977 54.423 39.873 53.527 40.977 53.527H44.775V49.73C44.775 48.626 45.671 47.73 46.775 47.73H48.239C49.343 47.73 50.239 48.626 50.239 49.73V53.527H54.037C55.141 53.527 56.037 54.423 56.037 55.527V56.992ZM92.987 46.876C94.748 46.876 96.175 48.304 96.175 50.064C96.175 51.824 94.748 53.254 92.987 53.254C91.225 53.254 89.798 51.825 89.798 50.065C89.798 48.305 91.226 46.876 92.987 46.876ZM86.793 59.448C85.032 59.448 83.605 58.02 83.605 56.26C83.605 54.498 85.033 53.072 86.793 53.072C88.553 53.072 89.981 54.499 89.981 56.26C89.981 58.02 88.554 59.448 86.793 59.448ZM92.987 65.642C91.225 65.642 89.798 64.213 89.798 62.453C89.798 60.693 91.226 59.265 92.987 59.265C94.748 59.265 96.175 60.694 96.175 62.453C96.176 64.213 94.748 65.642 92.987 65.642ZM99.181 59.448C97.42 59.448 95.993 58.02 95.993 56.26C95.993 54.498 97.421 53.072 99.181 53.072C100.941 53.072 102.369 54.499 102.369 56.26C102.369 58.02 100.941 59.448 99.181 59.448Z" fill="white"/>
<path d="M31.9807 123.8C32.9727 123.8 33.8314 123.965 34.5567 124.296C35.2927 124.627 35.858 125.096 36.2527 125.704C36.6474 126.312 36.8447 127.032 36.8447 127.864C36.8447 128.685 36.6474 129.405 36.2527 130.024C35.858 130.632 35.2927 131.101 34.5567 131.432C33.8314 131.752 32.9727 131.912 31.9807 131.912H29.7247V135H27.1327V123.8H31.9807ZM31.8367 129.8C32.6154 129.8 33.2074 129.635 33.6127 129.304C34.018 128.963 34.2207 128.483 34.2207 127.864C34.2207 127.235 34.018 126.755 33.6127 126.424C33.2074 126.083 32.6154 125.912 31.8367 125.912H29.7247V129.8H31.8367ZM38.6754 123.128H41.1714V135H38.6754V123.128ZM46.9599 126.264C48.2933 126.264 49.3173 126.584 50.0319 127.224C50.7466 127.853 51.1039 128.808 51.1039 130.088V135H48.7679V133.928C48.2986 134.728 47.4239 135.128 46.1439 135.128C45.4826 135.128 44.9066 135.016 44.4159 134.792C43.9359 134.568 43.5679 134.259 43.3119 133.864C43.0559 133.469 42.9279 133.021 42.9279 132.52C42.9279 131.72 43.2266 131.091 43.8239 130.632C44.4319 130.173 45.3653 129.944 46.6239 129.944H48.6079C48.6079 129.4 48.4426 128.984 48.1119 128.696C47.7813 128.397 47.2853 128.248 46.6239 128.248C46.1653 128.248 45.7119 128.323 45.2639 128.472C44.8266 128.611 44.4533 128.803 44.1439 129.048L43.2479 127.304C43.7173 126.973 44.2773 126.717 44.9279 126.536C45.5893 126.355 46.2666 126.264 46.9599 126.264ZM46.7679 133.448C47.1946 133.448 47.5733 133.352 47.9039 133.16C48.2346 132.957 48.4693 132.664 48.6079 132.28V131.4H46.8959C45.8719 131.4 45.3599 131.736 45.3599 132.408C45.3599 132.728 45.4826 132.984 45.7279 133.176C45.9839 133.357 46.3306 133.448 46.7679 133.448ZM61.7507 126.392L57.8627 135.528C57.468 136.52 56.9774 137.219 56.3907 137.624C55.8147 138.029 55.116 138.232 54.2947 138.232C53.8467 138.232 53.404 138.163 52.9667 138.024C52.5294 137.885 52.172 137.693 51.8947 137.448L52.8067 135.672C52.9987 135.843 53.2174 135.976 53.4627 136.072C53.7187 136.168 53.9694 136.216 54.2147 136.216C54.556 136.216 54.8334 136.131 55.0467 135.96C55.26 135.8 55.452 135.528 55.6227 135.144L55.6547 135.064L51.9267 126.392H54.5027L56.9187 132.232L59.3507 126.392H61.7507ZM76.1804 126.392V133.56C76.1804 135.139 75.7698 136.312 74.9484 137.08C74.1271 137.848 72.9271 138.232 71.3484 138.232C70.5164 138.232 69.7271 138.131 68.9804 137.928C68.2338 137.725 67.6151 137.432 67.1244 137.048L68.1164 135.256C68.4791 135.555 68.9378 135.789 69.4924 135.96C70.0471 136.141 70.6018 136.232 71.1564 136.232C72.0204 136.232 72.6551 136.035 73.0604 135.64C73.4764 135.256 73.6844 134.669 73.6844 133.88V133.512C73.0338 134.227 72.1271 134.584 70.9644 134.584C70.1751 134.584 69.4498 134.413 68.7884 134.072C68.1378 133.72 67.6204 133.229 67.2364 132.6C66.8524 131.971 66.6604 131.245 66.6604 130.424C66.6604 129.603 66.8524 128.877 67.2364 128.248C67.6204 127.619 68.1378 127.133 68.7884 126.792C69.4498 126.44 70.1751 126.264 70.9644 126.264C72.2124 126.264 73.1618 126.675 73.8124 127.496V126.392H76.1804ZM71.4604 132.536C72.1218 132.536 72.6604 132.344 73.0764 131.96C73.5031 131.565 73.7164 131.053 73.7164 130.424C73.7164 129.795 73.5031 129.288 73.0764 128.904C72.6604 128.509 72.1218 128.312 71.4604 128.312C70.7991 128.312 70.2551 128.509 69.8284 128.904C69.4018 129.288 69.1884 129.795 69.1884 130.424C69.1884 131.053 69.4018 131.565 69.8284 131.96C70.2551 132.344 70.7991 132.536 71.4604 132.536ZM81.9756 126.264C83.3089 126.264 84.3329 126.584 85.0476 127.224C85.7622 127.853 86.1196 128.808 86.1196 130.088V135H83.7836V133.928C83.3142 134.728 82.4396 135.128 81.1596 135.128C80.4982 135.128 79.9222 135.016 79.4316 134.792C78.9516 134.568 78.5836 134.259 78.3276 133.864C78.0716 133.469 77.9436 133.021 77.9436 132.52C77.9436 131.72 78.2422 131.091 78.8396 130.632C79.4476 130.173 80.3809 129.944 81.6396 129.944H83.6236C83.6236 129.4 83.4582 128.984 83.1276 128.696C82.7969 128.397 82.3009 128.248 81.6396 128.248C81.1809 128.248 80.7276 128.323 80.2796 128.472C79.8422 128.611 79.4689 128.803 79.1596 129.048L78.2636 127.304C78.7329 126.973 79.2929 126.717 79.9436 126.536C80.6049 126.355 81.2822 126.264 81.9756 126.264ZM81.7836 133.448C82.2102 133.448 82.5889 133.352 82.9196 133.16C83.2502 132.957 83.4849 132.664 83.6236 132.28V131.4H81.9116C80.8876 131.4 80.3756 131.736 80.3756 132.408C80.3756 132.728 80.4982 132.984 80.7436 133.176C80.9996 133.357 81.3462 133.448 81.7836 133.448ZM99.4026 126.264C100.48 126.264 101.333 126.584 101.963 127.224C102.603 127.853 102.923 128.803 102.923 130.072V135H100.427V130.456C100.427 129.773 100.283 129.267 99.9946 128.936C99.7172 128.595 99.3172 128.424 98.7946 128.424C98.2079 128.424 97.7439 128.616 97.4026 129C97.0612 129.373 96.8906 129.933 96.8906 130.68V135H94.3946V130.456C94.3946 129.101 93.8506 128.424 92.7626 128.424C92.1866 128.424 91.7279 128.616 91.3866 129C91.0452 129.373 90.8746 129.933 90.8746 130.68V135H88.3786V126.392H90.7626V127.384C91.0826 127.021 91.4719 126.744 91.9306 126.552C92.3999 126.36 92.9119 126.264 93.4666 126.264C94.0746 126.264 94.6239 126.387 95.1146 126.632C95.6052 126.867 95.9999 127.213 96.2986 127.672C96.6506 127.224 97.0932 126.877 97.6266 126.632C98.1706 126.387 98.7626 126.264 99.4026 126.264ZM113.686 130.728C113.686 130.76 113.67 130.984 113.638 131.4H107.126C107.243 131.933 107.52 132.355 107.958 132.664C108.395 132.973 108.939 133.128 109.59 133.128C110.038 133.128 110.432 133.064 110.774 132.936C111.126 132.797 111.451 132.584 111.75 132.296L113.078 133.736C112.267 134.664 111.083 135.128 109.526 135.128C108.555 135.128 107.696 134.941 106.95 134.568C106.203 134.184 105.627 133.656 105.222 132.984C104.816 132.312 104.614 131.549 104.614 130.696C104.614 129.853 104.811 129.096 105.206 128.424C105.611 127.741 106.16 127.213 106.854 126.84C107.558 126.456 108.342 126.264 109.206 126.264C110.048 126.264 110.811 126.445 111.494 126.808C112.176 127.171 112.71 127.693 113.094 128.376C113.488 129.048 113.686 129.832 113.686 130.728ZM109.222 128.152C108.656 128.152 108.182 128.312 107.798 128.632C107.414 128.952 107.179 129.389 107.094 129.944H111.334C111.248 129.4 111.014 128.968 110.63 128.648C110.246 128.317 109.776 128.152 109.222 128.152Z" fill="white"/>
</g>
<defs>
<clipPath id="clip0">
<rect width="140" height="159" fill="white"/>
</clipPath>
</defs>
</svg>
