<svg width="140" height="160" viewBox="0 0 140 160" fill="none" xmlns="http://www.w3.org/2000/svg">
<rect width="140" height="160" rx="16" fill="#9AD74D"/>
<path d="M36.8986 135.192C36.0133 135.192 35.1546 135.075 34.3226 134.84C33.5013 134.595 32.84 134.28 32.3386 133.896L33.2186 131.944C33.6986 132.296 34.2693 132.579 34.9306 132.792C35.592 133.005 36.2533 133.112 36.9146 133.112C37.6506 133.112 38.1946 133.005 38.5466 132.792C38.8986 132.568 39.0746 132.275 39.0746 131.912C39.0746 131.645 38.968 131.427 38.7546 131.256C38.552 131.075 38.2853 130.931 37.9546 130.824C37.6346 130.717 37.1973 130.6 36.6426 130.472C35.7893 130.269 35.0906 130.067 34.5466 129.864C34.0026 129.661 33.5333 129.336 33.1386 128.888C32.7546 128.44 32.5626 127.843 32.5626 127.096C32.5626 126.445 32.7386 125.859 33.0906 125.336C33.4426 124.803 33.9706 124.381 34.6746 124.072C35.3893 123.763 36.2586 123.608 37.2826 123.608C37.9973 123.608 38.696 123.693 39.3786 123.864C40.0613 124.035 40.6586 124.28 41.1706 124.6L40.3706 126.568C39.336 125.981 38.3013 125.688 37.2666 125.688C36.5413 125.688 36.0026 125.805 35.6506 126.04C35.3093 126.275 35.1386 126.584 35.1386 126.968C35.1386 127.352 35.336 127.64 35.7306 127.832C36.136 128.013 36.7493 128.195 37.5706 128.376C38.424 128.579 39.1226 128.781 39.6666 128.984C40.2106 129.187 40.6746 129.507 41.0586 129.944C41.4533 130.381 41.6506 130.973 41.6506 131.72C41.6506 132.36 41.4693 132.947 41.1066 133.48C40.7546 134.003 40.2213 134.419 39.5066 134.728C38.792 135.037 37.9226 135.192 36.8986 135.192ZM51.6778 130.728C51.6778 130.76 51.6618 130.984 51.6298 131.4H45.1178C45.2351 131.933 45.5124 132.355 45.9498 132.664C46.3871 132.973 46.9311 133.128 47.5818 133.128C48.0298 133.128 48.4244 133.064 48.7658 132.936C49.1178 132.797 49.4431 132.584 49.7418 132.296L51.0698 133.736C50.2591 134.664 49.0751 135.128 47.5178 135.128C46.5471 135.128 45.6884 134.941 44.9418 134.568C44.1951 134.184 43.6191 133.656 43.2138 132.984C42.8084 132.312 42.6058 131.549 42.6058 130.696C42.6058 129.853 42.8031 129.096 43.1978 128.424C43.6031 127.741 44.1524 127.213 44.8458 126.84C45.5498 126.456 46.3338 126.264 47.1978 126.264C48.0404 126.264 48.8031 126.445 49.4858 126.808C50.1684 127.171 50.7018 127.693 51.0858 128.376C51.4804 129.048 51.6778 129.832 51.6778 130.728ZM47.2138 128.152C46.6484 128.152 46.1738 128.312 45.7898 128.632C45.4058 128.952 45.1711 129.389 45.0858 129.944H49.3258C49.2404 129.4 49.0058 128.968 48.6218 128.648C48.2378 128.317 47.7684 128.152 47.2138 128.152ZM58.5715 126.264C59.6382 126.264 60.4968 126.584 61.1475 127.224C61.8088 127.864 62.1395 128.813 62.1395 130.072V135H59.6435V130.456C59.6435 129.773 59.4942 129.267 59.1955 128.936C58.8968 128.595 58.4648 128.424 57.8995 128.424C57.2702 128.424 56.7688 128.621 56.3955 129.016C56.0222 129.4 55.8355 129.976 55.8355 130.744V135H53.3395V126.392H55.7235V127.4C56.0542 127.037 56.4648 126.76 56.9555 126.568C57.4462 126.365 57.9848 126.264 58.5715 126.264ZM73.2638 123.128V135H70.8798V134.008C70.2611 134.755 69.3651 135.128 68.1918 135.128C67.3811 135.128 66.6451 134.947 65.9838 134.584C65.3331 134.221 64.8211 133.704 64.4478 133.032C64.0744 132.36 63.8878 131.581 63.8878 130.696C63.8878 129.811 64.0744 129.032 64.4478 128.36C64.8211 127.688 65.3331 127.171 65.9838 126.808C66.6451 126.445 67.3811 126.264 68.1918 126.264C69.2904 126.264 70.1491 126.611 70.7678 127.304V123.128H73.2638ZM68.6238 133.08C69.2531 133.08 69.7758 132.867 70.1918 132.44C70.6078 132.003 70.8158 131.421 70.8158 130.696C70.8158 129.971 70.6078 129.395 70.1918 128.968C69.7758 128.531 69.2531 128.312 68.6238 128.312C67.9838 128.312 67.4558 128.531 67.0398 128.968C66.6238 129.395 66.4158 129.971 66.4158 130.696C66.4158 131.421 66.6238 132.003 67.0398 132.44C67.4558 132.867 67.9838 133.08 68.6238 133.08ZM88.9851 126.392V133.56C88.9851 135.139 88.5745 136.312 87.7531 137.08C86.9318 137.848 85.7318 138.232 84.1531 138.232C83.3211 138.232 82.5318 138.131 81.7851 137.928C81.0385 137.725 80.4198 137.432 79.9291 137.048L80.9211 135.256C81.2838 135.555 81.7425 135.789 82.2971 135.96C82.8518 136.141 83.4065 136.232 83.9611 136.232C84.8251 136.232 85.4598 136.035 85.8651 135.64C86.2811 135.256 86.4891 134.669 86.4891 133.88V133.512C85.8385 134.227 84.9318 134.584 83.7691 134.584C82.9798 134.584 82.2545 134.413 81.5931 134.072C80.9425 133.72 80.4251 133.229 80.0411 132.6C79.6571 131.971 79.4651 131.245 79.4651 130.424C79.4651 129.603 79.6571 128.877 80.0411 128.248C80.4251 127.619 80.9425 127.133 81.5931 126.792C82.2545 126.44 82.9798 126.264 83.7691 126.264C85.0171 126.264 85.9665 126.675 86.6171 127.496V126.392H88.9851ZM84.2651 132.536C84.9265 132.536 85.4651 132.344 85.8811 131.96C86.3078 131.565 86.5211 131.053 86.5211 130.424C86.5211 129.795 86.3078 129.288 85.8811 128.904C85.4651 128.509 84.9265 128.312 84.2651 128.312C83.6038 128.312 83.0598 128.509 82.6331 128.904C82.2065 129.288 81.9931 129.795 81.9931 130.424C81.9931 131.053 82.2065 131.565 82.6331 131.96C83.0598 132.344 83.6038 132.536 84.2651 132.536ZM91.3083 126.392H93.8043V135H91.3083V126.392ZM92.5563 125.192C92.0976 125.192 91.7243 125.059 91.4363 124.792C91.1483 124.525 91.0043 124.195 91.0043 123.8C91.0043 123.405 91.1483 123.075 91.4363 122.808C91.7243 122.541 92.0976 122.408 92.5563 122.408C93.0149 122.408 93.3883 122.536 93.6763 122.792C93.9643 123.048 94.1083 123.368 94.1083 123.752C94.1083 124.168 93.9643 124.515 93.6763 124.792C93.3883 125.059 93.0149 125.192 92.5563 125.192ZM98.8568 126.584H101.065V128.504H98.9208V135H96.4248V128.504H95.0968V126.584H96.4248V126.2C96.4248 125.219 96.7128 124.44 97.2888 123.864C97.8754 123.288 98.6968 123 99.7528 123C100.126 123 100.478 123.043 100.809 123.128C101.15 123.203 101.433 123.315 101.657 123.464L101.001 125.272C100.713 125.069 100.377 124.968 99.9928 124.968C99.2354 124.968 98.8568 125.384 98.8568 126.216V126.584ZM107.86 134.584C107.615 134.765 107.311 134.904 106.948 135C106.596 135.085 106.223 135.128 105.828 135.128C104.804 135.128 104.01 134.867 103.444 134.344C102.89 133.821 102.612 133.053 102.612 132.04V128.504H101.284V126.584H102.612V124.488H105.108V126.584H107.252V128.504H105.108V132.008C105.108 132.371 105.199 132.653 105.38 132.856C105.572 133.048 105.839 133.144 106.18 133.144C106.575 133.144 106.911 133.037 107.188 132.824L107.86 134.584Z" fill="white"/>
<path d="M61.68 59.5067H40.26C39.9258 59.5067 39.6053 59.3739 39.369 59.1376C39.1327 58.9013 39 58.5808 39 58.2467V48.1667C39 47.8325 39.1327 47.512 39.369 47.2757C39.6053 47.0394 39.9258 46.9067 40.26 46.9067H61.68V59.5067ZM64.2 46.9067H66.1143L50.2158 42.1373C49.3781 41.886 48.6019 41.463 47.9366 40.8953C47.2713 40.3275 46.7315 39.6275 46.3515 38.8398C45.9715 38.0521 45.7596 37.1939 45.7295 36.3198C45.6993 35.4457 45.8514 34.5749 46.1761 33.7628L46.3312 33.3751C46.7183 32.4071 47.3397 31.5503 48.1395 30.8815C48.9394 30.2127 49.8927 29.7529 50.914 29.5432C51.9353 29.3336 52.9926 29.3807 53.9913 29.6803C54.9899 29.9799 55.8985 30.5227 56.6357 31.26L68.4282 43.0536C67.3456 39.1259 64.9368 33.2987 59.7949 30.3606C59.6494 30.2795 59.5214 30.1703 59.4184 30.0394C59.3153 29.9085 59.2392 29.7585 59.1945 29.598C59.1498 29.4375 59.1374 29.2698 59.158 29.1044C59.1785 28.9391 59.2317 28.7795 59.3143 28.6349C59.397 28.4902 59.5075 28.3634 59.6395 28.2618C59.7715 28.1601 59.9223 28.0856 60.0833 28.0427C60.2442 27.9997 60.4121 27.989 60.5772 28.0114C60.7423 28.0337 60.9013 28.0885 61.0451 28.1727C66.4284 31.2489 69.1518 36.8393 70.5 41.0952C71.8482 36.839 74.5716 31.2489 79.9549 28.1727C80.2448 28.0112 80.5867 27.9705 80.9064 28.0595C81.226 28.1485 81.4977 28.3601 81.6623 28.6482C81.827 28.9363 81.8713 29.2778 81.7857 29.5984C81.7001 29.919 81.4914 30.1929 81.2051 30.3606C76.0468 33.308 73.6421 39.1356 72.565 43.0599L84.3649 31.26C85.1021 30.5229 86.0107 29.9802 87.0093 29.6807C88.0078 29.3811 89.0651 29.334 90.0863 29.5437C91.1075 29.7533 92.0607 30.2131 92.8605 30.8818C93.6603 31.5505 94.2816 32.4072 94.6688 33.3751L94.8239 33.7628C95.1484 34.5748 95.3004 35.4455 95.2701 36.3194C95.2399 37.1933 95.0282 38.0513 94.6484 38.8389C94.2686 39.6266 93.7291 40.3266 93.0642 40.8944C92.3992 41.4623 91.6234 41.8855 90.786 42.1373L74.8858 46.9067H76.8V59.5067H64.2V46.9067ZM74.9247 44.2636L90.0607 39.7232C90.5634 39.5723 91.0291 39.3185 91.4283 38.9778C91.8275 38.6371 92.1513 38.217 92.3792 37.7443C92.6071 37.2716 92.7341 36.7566 92.7521 36.2321C92.7701 35.7076 92.6786 35.1851 92.4836 34.6979L92.3285 34.3103C92.1007 33.7268 91.7294 33.2103 91.2489 32.8085C90.7684 32.4067 90.1943 32.1327 89.5797 32.0118C89.321 31.9586 89.0575 31.9318 88.7934 31.9318C88.3007 31.9318 87.8128 32.03 87.3584 32.2206C86.904 32.4111 86.4921 32.6903 86.1467 33.0417L74.9247 44.2636ZM66.0753 44.2636L54.854 33.0417C54.5084 32.6902 54.0962 32.4111 53.6416 32.2205C53.187 32.0299 52.699 31.9318 52.2061 31.9318C51.9421 31.9318 51.6789 31.9587 51.4203 32.0118C50.8058 32.1328 50.2317 32.4069 49.7513 32.8087C49.2708 33.2104 48.8994 33.7269 48.6715 34.3103L48.5164 34.6979C48.3214 35.1851 48.23 35.7077 48.248 36.2322C48.266 36.7567 48.393 37.2717 48.621 37.7445C48.849 38.2172 49.1729 38.6372 49.5721 38.9779C49.9714 39.3186 50.4372 39.5724 50.9399 39.7232L66.0753 44.2636ZM100.74 46.9067H79.32V59.5067H100.74C101.074 59.5067 101.395 59.3739 101.631 59.1376C101.867 58.9013 102 58.5808 102 58.2467V48.1667C102 47.8325 101.867 47.512 101.631 47.2757C101.395 47.0394 101.074 46.9067 100.74 46.9067ZM41.52 97.3067C41.52 97.6408 41.6527 97.9613 41.889 98.1976C42.1253 98.4339 42.4458 98.5667 42.78 98.5667H64.2V62.0267H41.52V97.3067ZM66.72 98.5667H74.28V62.0267H66.72V98.5667ZM76.8 98.5667H98.22C98.5542 98.5667 98.8747 98.4339 99.111 98.1976C99.3473 97.9613 99.48 97.6408 99.48 97.3067V62.0267H76.8V98.5667Z" fill="white"/>
</svg>
