<svg width="95" height="160" viewBox="0 0 95 160" fill="none" xmlns="http://www.w3.org/2000/svg">
<path d="M18.2459 137.901C19.0141 134.674 22.2792 133.355 23.8157 133.099C27.4649 139.437 29.5775 143.086 31.6902 143.47L30.7299 145.967C30.7939 146.735 30.8836 148.771 30.7299 150.769C30.5763 152.766 29.2574 154.162 28.6172 154.61C24.84 150.385 17.4776 141.127 18.2459 137.901Z" fill="#C51216"/>
<path d="M55.5059 159.412C63.3421 155.417 54.6737 148.912 49.3599 146.159C43.406 145.391 31.6902 148.848 30.922 149.808C30.1481 150.776 30.3458 152.625 29.9617 153.266L30.1537 159.412H55.5059Z" fill="#C51216"/>
<path d="M50.1283 132.907C57.5034 131.217 61.844 115.813 60.8837 103.522C58.579 102.177 57.4266 108.323 39.7569 107.555C43.9823 108.899 50.3203 122.92 50.1283 132.907Z" fill="#463738"/>
<path d="M19.5904 111.012C13.4444 111.319 9.60312 103.073 8.45074 98.912C11.9079 93.7263 13.0602 92.9581 18.0539 90.8454C23.0475 88.7327 28.0411 91.9978 28.8093 95.4549C29.5776 98.912 27.2728 110.628 19.5904 111.012Z" fill="#FCB075"/>
<path d="M51.8568 67.4138C47.4393 74.3281 41.1013 70.8709 39.1806 68.5662C39.1806 73.7519 29.4495 82.6507 25.9284 85.4677C25.9284 86.2359 25.3522 89.501 25.3522 91.0375C29.7696 93.9184 29.0014 102.369 25.9284 107.555C60.4995 108.707 53.3932 104.866 60.8837 103.522C59.3472 99.6803 60.8837 85.4677 58.771 67.7979C58.771 67.7979 53.8542 67.4138 51.8568 67.4138Z" fill="#D21514"/>
<path d="M38.4287 67.6059H38.4124C38.3661 67.5364 38.3729 67.5423 38.4287 67.6059H51.6647C51.1526 68.4382 49.3945 70.9641 45.9029 71.2551C41.8494 71.5929 38.8356 68.0691 38.4287 67.6059Z" fill="#FCB075"/>
<g filter="url(#filter0_d)">
<path d="M33.8029 63.9567C29.9617 63.4958 24.1358 58.515 21.703 56.0822C25.4014 51.94 23.5805 46.8721 22.24 45.1294L22.0872 44.9426C22.1372 44.9997 22.1882 45.0621 22.24 45.1294L25.5443 49.1679V38.4124C29.3855 38.4124 34.3791 31.8823 38.6045 25.5443L52.8171 36.4918C52.8171 34.7633 54.1615 29.0782 54.1615 25.5443C59.5393 27.5417 63.7006 32.5225 64.917 33.995C65.4932 33.0347 66.0694 31.3062 66.4535 30.1538L66.4535 30.1538C68.7583 34.9553 70.6789 49.7441 68.3741 56.0822C64.6865 61.6136 59.4112 63.6366 57.2345 63.9567C51.0245 64.1488 37.6442 64.4177 33.8029 63.9567Z" fill="#FCB075"/>
<path d="M33.8029 63.9567C29.9617 63.4958 24.1358 58.515 21.703 56.0822C25.4014 51.94 23.5805 46.8721 22.24 45.1294L22.0872 44.9426C22.1372 44.9997 22.1882 45.0621 22.24 45.1294L25.5443 49.1679V38.4124C29.3855 38.4124 34.3791 31.8823 38.6045 25.5443L52.8171 36.4918C52.8171 34.7633 54.1615 29.0782 54.1615 25.5443C59.5393 27.5417 63.7006 32.5225 64.917 33.995C65.4932 33.0347 66.0694 31.3062 66.4535 30.1538L66.4535 30.1538C68.7583 34.9553 70.6789 49.7441 68.3741 56.0822C64.6865 61.6136 59.4112 63.6366 57.2345 63.9567C51.0245 64.1488 37.6442 64.4177 33.8029 63.9567Z" stroke="black"/>
</g>
<path d="M38.0283 67.2218C38.9502 66.1462 37.2601 64.5969 36.2998 63.9567C42.3177 63.7006 54.1231 63.3421 53.2012 63.9567C52.2793 64.5713 51.7928 66.7736 51.6647 67.6059C46.7352 68.054 37.1064 68.2973 38.0283 67.2218Z" fill="#FCB075"/>
<path d="M45.3267 55.3139C47.2473 58.0028 52.2025 61.9977 56.6584 56.4663C52.5098 56.4663 47.3754 55.698 45.3267 55.3139Z" fill="#8E7D50"/>
<path d="M24.1999 50.1282C24.1999 54.3712 21.3365 57.8107 17.0936 57.8107C12.8507 57.8107 8.06665 53.4108 8.06665 49.1679C8.06665 44.925 10.93 40.7172 15.173 40.7172C19.4159 40.7172 24.1999 45.3267 24.1999 50.1282Z" fill="#FEAD77"/>
<circle cx="16.7095" cy="49.7441" r="3.64918" fill="#D56E3B"/>
<path d="M61.4599 33.0347C60.538 34.1102 58.0028 37.8362 56.8504 39.5648C59.9234 36.9528 62.9964 36.1717 64.1488 36.1077C63.6366 34.6352 62.3818 31.9591 61.4599 33.0347Z" fill="#29271A"/>
<path d="M0 35.9156L7.87455 49.1679C12.0231 35.1858 21.3829 43.342 25.5443 49.1679V38.4124C30.4611 38.4124 36.2997 29.8337 38.6045 25.5443L52.8171 36.4918C52.8171 34.5712 54.1615 29.2319 54.1615 25.5443C63.5726 31.3061 59.5393 35.9156 59.5393 38.4124C63.3805 38.4124 65.7493 32.9067 66.4535 30.1538C67.7339 32.0744 70.6789 36.415 72.2154 38.4124C75.2884 31.8055 72.2154 21.9591 70.2947 17.8618H80.282C77.5163 9.2574 63.6366 6.72218 57.0425 6.53011C58.5149 5.88991 62.0745 4.07172 64.5329 1.92062C48.0924 -0.0768248 38.0923 4.16135 35.1474 6.53011V0C16.5173 5.18568 15.9412 19.0142 13.8285 22.4713C7.83614 24.776 6.46609 32.3945 6.53011 35.9156H0Z" fill="#923725"/>
<path d="M49.552 38.9886C45.8644 34.8401 37.7722 32.7786 34.187 32.2664C33.931 32.6506 33.2651 33.6877 32.6505 34.7632C36.4918 34.7632 46.479 37.8362 49.552 38.9886Z" fill="#29271A"/>
<ellipse cx="42.6378" cy="45.1346" rx="3.45712" ry="4.03331" fill="#774E3A"/>
<ellipse cx="41.8695" cy="44.5584" rx="2.30475" ry="2.68887" fill="#25201F"/>
<circle cx="41.6775" cy="43.9822" r="1.34444" fill="white"/>
<ellipse cx="63.3805" cy="44.7505" rx="3.45712" ry="4.03331" fill="#774E3A"/>
<ellipse cx="62.6122" cy="44.1743" rx="2.30475" ry="2.68887" fill="#25201F"/>
<circle cx="62.4202" cy="43.5981" r="1.34444" fill="white"/>
<ellipse cx="55.698" cy="52.2409" rx="1.15237" ry="1.5365" fill="#BA8751"/>
<path d="M14.9808 72.4834C29.8639 65.9685 55.0761 60.3501 26.1204 86.0438C19.0473 84.5066 16.4544 74.8259 14.9808 72.4834Z" fill="#D21514"/>
<path d="M70.871 76.0566C68.4126 71.1398 61.652 68.6302 58.579 67.99C59.5009 69.6802 59.4112 78.8095 59.5393 83.1629L63.1885 85.6597C64.5969 83.6111 68.1053 78.8223 70.871 76.0566Z" fill="#D21514"/>
<path d="M82.3947 62.4202C87.3883 64.917 96.8378 71.7544 94.6867 79.1296C90.8454 83.547 88.9248 85.6597 84.5074 85.0835C80.4741 89.4369 71.1783 97.1834 63.1885 85.6597C66.2615 81.2423 69.3345 77.5931 70.6789 76.2487H71.8313L72.3911 72.8436C71.8215 67.4238 78.967 63.6262 82.3947 62.4202Z" fill="#FCB075"/>
<path d="M1.92065 86.2359C3.14985 81.3191 11.2037 76.0566 15.5571 73.3677C17.4777 78.7455 20.4226 82.4587 21.7031 83.355L19.7824 85.6597L18.0539 88.1565C5.56984 77.9772 7.68252 82.2026 1.92065 86.2359Z" fill="#FCB075"/>
<path d="M12.9292 84.0815C6.28611 78.5509 4.76769 84.6741 1.92065 86.4518C3.50234 89.5463 7.04532 96.4859 8.56375 99.4882C10.6895 93.6416 15.7491 91.6137 18.0539 90.8454V88.2295L12.9292 84.0815Z" fill="#FCB075"/>
<path d="M35.7236 129.642C29.7312 123.496 27.0167 112.484 27.4649 107.747H40.7172C53.7774 121.383 49.36 141.742 49.36 146.159C43.5213 145.237 34.5072 148.208 30.7299 149.808C31.8183 145.647 34.3407 135.788 35.7236 129.642Z" fill="#463738"/>
<path d="M31.8824 126.761V123.88L35.7236 129.834C34.8273 133.291 32.8043 140.897 31.8824 143.662C28.4252 143.662 26.6967 137.132 23.6237 132.907C24.8529 129.834 29.6416 127.529 31.8824 126.761Z" fill="#463738"/>
<defs>
<filter id="filter0_d" x="17.703" y="11.5443" width="55.7115" height="52.6669" filterUnits="userSpaceOnUse" color-interpolation-filters="sRGB">
<feFlood flood-opacity="0" result="BackgroundImageFix"/>
<feColorMatrix in="SourceAlpha" type="matrix" values="0 0 0 0 0 0 0 0 0 0 0 0 0 0 0 0 0 0 127 0"/>
<feOffset dy="-10"/>
<feGaussianBlur stdDeviation="2"/>
<feColorMatrix type="matrix" values="0 0 0 0 0 0 0 0 0 0 0 0 0 0 0 0 0 0 0.25 0"/>
<feBlend mode="normal" in2="BackgroundImageFix" result="effect1_dropShadow"/>
<feBlend mode="normal" in="SourceGraphic" in2="effect1_dropShadow" result="shape"/>
</filter>
</defs>
</svg>
