<svg width="104" height="185" viewBox="0 0 104 185" fill="none" xmlns="http://www.w3.org/2000/svg">
<rect width="104" height="185" fill="white"/>
<rect x="18" y="55" width="28" height="2" fill="black"/>
<rect x="18" y="59" width="48" height="2" fill="black"/>
<rect x="18" y="75" width="28" height="2" fill="black"/>
<rect x="18" y="79" width="48" height="2" fill="black"/>
<rect x="18" y="96" width="28" height="2" fill="black"/>
<rect x="18" y="100" width="48" height="2" fill="black"/>
<rect x="18" y="117" width="28" height="2" fill="black"/>
<rect x="18" y="121" width="48" height="2" fill="black"/>
<rect x="17" y="138" width="28" height="2" fill="black"/>
<rect x="17" y="142" width="48" height="2" fill="black"/>
<rect x="17" y="159" width="28" height="2" fill="black"/>
<rect x="17" y="163" width="48" height="2" fill="black"/>
<circle cx="10.5" cy="12.5" r="3.5" fill="#0094FF"/>
<circle cx="12.5" cy="12.5" r="2" fill="#0094FF" stroke="black"/>
<circle cx="94.5" cy="11.5" r="3.5" fill="#0094FF"/>
<circle cx="96.5" cy="11.5" r="2" fill="#0094FF" stroke="black"/>
<path d="M25.382 30.168C24.6073 30.168 23.856 30.0653 23.128 29.86C22.4093 29.6453 21.8307 29.37 21.392 29.034L22.162 27.326C22.582 27.634 23.0813 27.8813 23.66 28.068C24.2387 28.2547 24.8173 28.348 25.396 28.348C26.04 28.348 26.516 28.2547 26.824 28.068C27.132 27.872 27.286 27.6153 27.286 27.298C27.286 27.0647 27.1927 26.8733 27.006 26.724C26.8287 26.5653 26.5953 26.4393 26.306 26.346C26.026 26.2527 25.6433 26.15 25.158 26.038C24.4113 25.8607 23.8 25.6833 23.324 25.506C22.848 25.3287 22.4373 25.044 22.092 24.652C21.756 24.26 21.588 23.7373 21.588 23.084C21.588 22.5147 21.742 22.0013 22.05 21.544C22.358 21.0773 22.82 20.7087 23.436 20.438C24.0613 20.1673 24.822 20.032 25.718 20.032C26.3433 20.032 26.9547 20.1067 27.552 20.256C28.1493 20.4053 28.672 20.62 29.12 20.9L28.42 22.622C27.5147 22.1087 26.6093 21.852 25.704 21.852C25.0693 21.852 24.598 21.9547 24.29 22.16C23.9913 22.3653 23.842 22.636 23.842 22.972C23.842 23.308 24.0147 23.56 24.36 23.728C24.7147 23.8867 25.2513 24.0453 25.97 24.204C26.7167 24.3813 27.328 24.5587 27.804 24.736C28.28 24.9133 28.686 25.1933 29.022 25.576C29.3673 25.9587 29.54 26.4767 29.54 27.13C29.54 27.69 29.3813 28.2033 29.064 28.67C28.756 29.1273 28.2893 29.4913 27.664 29.762C27.0387 30.0327 26.278 30.168 25.382 30.168ZM35.4437 30.168C34.0437 30.168 32.9517 29.7807 32.1677 29.006C31.3931 28.2313 31.0057 27.1253 31.0057 25.688V20.2H33.2737V25.604C33.2737 27.3587 34.0017 28.236 35.4577 28.236C36.1671 28.236 36.7084 28.026 37.0817 27.606C37.4551 27.1767 37.6417 26.5093 37.6417 25.604V20.2H39.8817V25.688C39.8817 27.1253 39.4897 28.2313 38.7057 29.006C37.9311 29.7807 36.8437 30.168 35.4437 30.168ZM48.3669 30L46.4769 27.27H46.3649H44.3909V30H42.1229V20.2H46.3649C47.2329 20.2 47.9843 20.3447 48.6189 20.634C49.2629 20.9233 49.7576 21.334 50.1029 21.866C50.4483 22.398 50.6209 23.028 50.6209 23.756C50.6209 24.484 50.4436 25.114 50.0889 25.646C49.7436 26.1687 49.2489 26.57 48.6049 26.85L50.8029 30H48.3669ZM48.3249 23.756C48.3249 23.2053 48.1476 22.7853 47.7929 22.496C47.4383 22.1973 46.9203 22.048 46.2389 22.048H44.3909V25.464H46.2389C46.9203 25.464 47.4383 25.3147 47.7929 25.016C48.1476 24.7173 48.3249 24.2973 48.3249 23.756ZM61.8399 20.2L57.5979 30H55.3579L51.1299 20.2H53.5799L56.5619 27.2L59.5859 20.2H61.8399ZM70.2461 28.18V30H62.6581V20.2H70.0641V22.02H64.9121V24.148H69.4621V25.912H64.9121V28.18H70.2461ZM76.659 26.528V30H74.391V26.5L70.597 20.2H73.005L75.623 24.554L78.241 20.2H80.467L76.659 26.528Z" fill="black"/>
<rect x="83.5" y="51.5" width="12" height="12" fill="white" stroke="black"/>
<rect x="83.5" y="93.5" width="12" height="12" fill="white" stroke="black"/>
<rect x="83.5" y="135.5" width="12" height="12" fill="white" stroke="black"/>
<rect x="83.5" y="72.5" width="12" height="12" fill="white" stroke="black"/>
<rect x="83.5" y="114.5" width="12" height="12" fill="white" stroke="black"/>
<rect x="83.5" y="156.5" width="12" height="12" fill="white" stroke="black"/>
</svg>
