<svg width="140" height="160" viewBox="0 0 140 160" fill="none" xmlns="http://www.w3.org/2000/svg">
<rect width="140" height="160" rx="16" fill="#CD2A01"/>
<path d="M29.133 135.192C28.2477 135.192 27.389 135.075 26.557 134.84C25.7357 134.595 25.0743 134.28 24.573 133.896L25.453 131.944C25.933 132.296 26.5037 132.579 27.165 132.792C27.8263 133.005 28.4877 133.112 29.149 133.112C29.885 133.112 30.429 133.005 30.781 132.792C31.133 132.568 31.309 132.275 31.309 131.912C31.309 131.645 31.2023 131.427 30.989 131.256C30.7863 131.075 30.5197 130.931 30.189 130.824C29.869 130.717 29.4317 130.6 28.877 130.472C28.0237 130.269 27.325 130.067 26.781 129.864C26.237 129.661 25.7677 129.336 25.373 128.888C24.989 128.44 24.797 127.843 24.797 127.096C24.797 126.445 24.973 125.859 25.325 125.336C25.677 124.803 26.205 124.381 26.909 124.072C27.6237 123.763 28.493 123.608 29.517 123.608C30.2317 123.608 30.9303 123.693 31.613 123.864C32.2957 124.035 32.893 124.28 33.405 124.6L32.605 126.568C31.5703 125.981 30.5357 125.688 29.501 125.688C28.7757 125.688 28.237 125.805 27.885 126.04C27.5437 126.275 27.373 126.584 27.373 126.968C27.373 127.352 27.5703 127.64 27.965 127.832C28.3703 128.013 28.9837 128.195 29.805 128.376C30.6583 128.579 31.357 128.781 31.901 128.984C32.445 129.187 32.909 129.507 33.293 129.944C33.6877 130.381 33.885 130.973 33.885 131.72C33.885 132.36 33.7037 132.947 33.341 133.48C32.989 134.003 32.4557 134.419 31.741 134.728C31.0263 135.037 30.157 135.192 29.133 135.192ZM38.9521 126.264C40.2855 126.264 41.3095 126.584 42.0241 127.224C42.7388 127.853 43.0961 128.808 43.0961 130.088V135H40.7601V133.928C40.2908 134.728 39.4161 135.128 38.1361 135.128C37.4748 135.128 36.8988 135.016 36.4081 134.792C35.9281 134.568 35.5601 134.259 35.3041 133.864C35.0481 133.469 34.9201 133.021 34.9201 132.52C34.9201 131.72 35.2188 131.091 35.8161 130.632C36.4241 130.173 37.3575 129.944 38.6161 129.944H40.6001C40.6001 129.4 40.4348 128.984 40.1041 128.696C39.7735 128.397 39.2775 128.248 38.6161 128.248C38.1575 128.248 37.7041 128.323 37.2561 128.472C36.8188 128.611 36.4455 128.803 36.1361 129.048L35.2401 127.304C35.7095 126.973 36.2695 126.717 36.9201 126.536C37.5815 126.355 38.2588 126.264 38.9521 126.264ZM38.7601 133.448C39.1868 133.448 39.5655 133.352 39.8961 133.16C40.2268 132.957 40.4615 132.664 40.6001 132.28V131.4H38.8881C37.8641 131.4 37.3521 131.736 37.3521 132.408C37.3521 132.728 37.4748 132.984 37.7201 133.176C37.9761 133.357 38.3228 133.448 38.7601 133.448ZM53.7429 126.392L49.8549 135.528C49.4602 136.52 48.9695 137.219 48.3829 137.624C47.8069 138.029 47.1082 138.232 46.2869 138.232C45.8389 138.232 45.3962 138.163 44.9589 138.024C44.5215 137.885 44.1642 137.693 43.8869 137.448L44.7989 135.672C44.9909 135.843 45.2095 135.976 45.4549 136.072C45.7109 136.168 45.9615 136.216 46.2069 136.216C46.5482 136.216 46.8255 136.131 47.0389 135.96C47.2522 135.8 47.4442 135.528 47.6149 135.144L47.6469 135.064L43.9189 126.392H46.4949L48.9109 132.232L51.3429 126.392H53.7429ZM64.8446 134.584C64.5993 134.765 64.2953 134.904 63.9326 135C63.5806 135.085 63.2073 135.128 62.8126 135.128C61.7886 135.128 60.994 134.867 60.4286 134.344C59.874 133.821 59.5966 133.053 59.5966 132.04V128.504H58.2686V126.584H59.5966V124.488H62.0926V126.584H64.2366V128.504H62.0926V132.008C62.0926 132.371 62.1833 132.653 62.3646 132.856C62.5566 133.048 62.8233 133.144 63.1646 133.144C63.5593 133.144 63.8953 133.037 64.1726 132.824L64.8446 134.584ZM71.4778 126.264C72.5444 126.264 73.4031 126.584 74.0538 127.224C74.7151 127.864 75.0458 128.813 75.0458 130.072V135H72.5498V130.456C72.5498 129.773 72.4004 129.267 72.1018 128.936C71.8031 128.595 71.3711 128.424 70.8058 128.424C70.1764 128.424 69.6751 128.621 69.3018 129.016C68.9284 129.4 68.7418 129.976 68.7418 130.744V135H66.2458V123.128H68.7418V127.288C69.0724 126.957 69.4724 126.707 69.9418 126.536C70.4111 126.355 70.9231 126.264 71.4778 126.264ZM80.7803 126.264C82.1136 126.264 83.1376 126.584 83.8523 127.224C84.5669 127.853 84.9243 128.808 84.9243 130.088V135H82.5883V133.928C82.1189 134.728 81.2443 135.128 79.9643 135.128C79.3029 135.128 78.7269 135.016 78.2363 134.792C77.7563 134.568 77.3883 134.259 77.1323 133.864C76.8763 133.469 76.7483 133.021 76.7483 132.52C76.7483 131.72 77.0469 131.091 77.6443 130.632C78.2523 130.173 79.1856 129.944 80.4443 129.944H82.4283C82.4283 129.4 82.2629 128.984 81.9323 128.696C81.6016 128.397 81.1056 128.248 80.4443 128.248C79.9856 128.248 79.5323 128.323 79.0843 128.472C78.6469 128.611 78.2736 128.803 77.9643 129.048L77.0683 127.304C77.5376 126.973 78.0976 126.717 78.7483 126.536C79.4096 126.355 80.0869 126.264 80.7803 126.264ZM80.5883 133.448C81.0149 133.448 81.3936 133.352 81.7243 133.16C82.0549 132.957 82.2896 132.664 82.4283 132.28V131.4H80.7163C79.6923 131.4 79.1803 131.736 79.1803 132.408C79.1803 132.728 79.3029 132.984 79.5483 133.176C79.8043 133.357 80.1509 133.448 80.5883 133.448ZM92.4153 126.264C93.4819 126.264 94.3406 126.584 94.9913 127.224C95.6526 127.864 95.9833 128.813 95.9833 130.072V135H93.4873V130.456C93.4873 129.773 93.3379 129.267 93.0393 128.936C92.7406 128.595 92.3086 128.424 91.7433 128.424C91.1139 128.424 90.6126 128.621 90.2393 129.016C89.8659 129.4 89.6793 129.976 89.6793 130.744V135H87.1833V126.392H89.5673V127.4C89.8979 127.037 90.3086 126.76 90.7993 126.568C91.2899 126.365 91.8286 126.264 92.4153 126.264ZM101.942 131.624L100.742 132.808V135H98.2458V123.128H100.742V129.848L104.39 126.392H107.366L103.782 130.04L107.686 135H104.662L101.942 131.624ZM111.423 135.128C110.708 135.128 110.01 135.043 109.327 134.872C108.644 134.691 108.1 134.467 107.695 134.2L108.527 132.408C108.911 132.653 109.375 132.856 109.919 133.016C110.463 133.165 110.996 133.24 111.519 133.24C112.575 133.24 113.103 132.979 113.103 132.456C113.103 132.211 112.959 132.035 112.671 131.928C112.383 131.821 111.94 131.731 111.343 131.656C110.639 131.549 110.058 131.427 109.599 131.288C109.14 131.149 108.74 130.904 108.399 130.552C108.068 130.2 107.903 129.699 107.903 129.048C107.903 128.504 108.058 128.024 108.367 127.608C108.687 127.181 109.146 126.851 109.743 126.616C110.351 126.381 111.066 126.264 111.887 126.264C112.495 126.264 113.098 126.333 113.695 126.472C114.303 126.6 114.804 126.781 115.199 127.016L114.367 128.792C113.61 128.365 112.783 128.152 111.887 128.152C111.354 128.152 110.954 128.227 110.687 128.376C110.42 128.525 110.287 128.717 110.287 128.952C110.287 129.219 110.431 129.405 110.719 129.512C111.007 129.619 111.466 129.72 112.095 129.816C112.799 129.933 113.375 130.061 113.823 130.2C114.271 130.328 114.66 130.568 114.991 130.92C115.322 131.272 115.487 131.763 115.487 132.392C115.487 132.925 115.327 133.4 115.007 133.816C114.687 134.232 114.218 134.557 113.599 134.792C112.991 135.016 112.266 135.128 111.423 135.128Z" fill="white"/>
<path fill-rule="evenodd" clip-rule="evenodd" d="M53.4989 66.7607C53.5599 64.1471 53.7776 61.2923 53.9154 59.1782L54.1675 54.3018C53.6664 54.4787 53.1669 54.6557 52.1709 54.8608C51.1765 55.0644 49.6857 55.3009 48.0931 55.6266C46.4989 55.9539 44.8045 56.3783 43.1195 56.5051C41.4361 56.6304 39.7667 56.4613 38.6095 56.3642C37.4538 56.2671 36.8133 56.2389 36.2276 56.1183C35.6404 55.9946 35.1048 55.7754 34.5724 55.553C34.4424 56.3375 34.3109 57.1221 34.2059 58.4015C34.1041 59.6794 34.0305 61.4552 34.0055 63.1809C33.9851 64.9082 34.0133 66.5838 34.2294 68.4708C34.4487 70.3547 34.8527 72.4437 35.3006 74.7332C35.7453 77.0226 36.2355 79.511 36.7851 81.7049C37.3348 83.9004 37.9455 85.8 38.5093 87.6494L40.1066 93.0975C40.8097 92.8297 41.5113 92.5635 42.3099 92.3505C43.1101 92.136 44.0043 91.9778 45.0457 91.8713C46.0855 91.768 47.2725 91.7194 48.7508 91.7805C50.2275 91.8431 51.9971 92.0154 53.4707 92.1751C54.9458 92.3364 56.1235 92.4852 57.0584 92.5243C57.9964 92.5635 58.6917 92.493 58.8906 92.3771C59.0941 92.2644 58.8029 92.1031 58.6134 91.9731L58.2328 91.6098L57.9056 91.1525L57.3919 90.5136C57.2056 90.2599 57.0192 89.9545 56.7953 89.4049C56.5729 88.8505 56.3083 88.0503 55.9293 86.5047C55.5519 84.9575 55.0523 82.668 54.6514 80.4788C54.2505 78.2911 53.942 76.2052 53.7416 73.9768C53.5365 71.7468 53.4378 69.3744 53.4989 66.7607ZM51.1577 83.7877C52.5452 83.8456 53.6242 85.0186 53.5662 86.406C53.5067 87.7935 52.3353 88.8709 50.9479 88.8129C49.562 88.755 48.4815 87.5836 48.5394 86.1946C48.5973 84.8087 49.7718 83.7298 51.1577 83.7877Z" fill="white"/>
<path fill-rule="evenodd" clip-rule="evenodd" d="M56.576 62.7926C56.4805 65.0601 56.468 67.7239 56.6042 70.3939C56.7389 73.0654 57.0223 75.7433 57.4561 78.3256C57.8915 80.9095 58.4756 83.4041 58.9469 85.1517C59.4183 86.8978 59.7691 87.9 60.1246 88.9007C61.7109 88.6689 63.3019 88.4418 64.8382 88.3087C66.3713 88.1772 67.8543 88.1396 69.4797 88.2085C71.1052 88.2759 72.8748 88.4497 74.5896 88.7676C76.3059 89.0855 77.9611 89.549 79.4754 89.9092C80.9929 90.2662 82.3647 90.523 83.9839 90.7391C85.6016 90.9553 87.4682 91.1322 89.3975 91.0633C91.3252 90.9975 93.3125 90.6875 94.5574 90.4416C95.8024 90.1957 96.3019 90.0219 96.8187 89.4519C97.3355 88.8788 97.8711 87.9157 98.1561 86.9902C98.4426 86.0615 98.4787 85.1783 98.3095 84.4799C98.1435 83.7815 97.7677 83.271 97.395 82.762C98.1921 82.596 98.9876 82.4347 99.6923 82.1184C100.395 81.8036 101.009 81.3338 101.478 80.7607C101.944 80.1875 102.27 79.5126 102.452 78.6811C102.636 77.848 102.677 76.8629 102.56 76.1175C102.442 75.3737 102.167 74.8679 101.841 74.4106C101.514 73.9518 101.138 73.5431 100.757 73.1312C101.468 72.6677 102.179 72.2026 102.793 71.7343C103.405 71.2677 103.917 70.7963 104.29 70.1684C104.66 69.542 104.89 68.7652 104.968 68.0762C105.048 67.3887 104.973 66.7921 104.799 66.244C104.624 65.6928 104.351 65.1885 103.878 64.6248C103.408 64.061 102.743 63.4409 102.315 63.0791C101.885 62.7143 101.694 62.6078 101.501 62.5013C102.116 61.9344 102.732 61.3691 103.25 60.7975C103.769 60.2291 104.185 59.6543 104.414 58.9215C104.644 58.1917 104.68 57.3054 104.611 56.5615C104.544 55.8177 104.371 55.2179 104.097 54.7152C103.822 54.2078 103.444 53.7991 102.97 53.3857C102.492 52.9691 101.918 52.551 101.385 52.2817C100.856 52.0123 100.366 51.8902 99.3353 51.7524C98.3033 51.6099 96.7326 51.4439 94.8565 51.4141C92.9836 51.3875 90.8085 51.494 89.3756 51.5316C87.9412 51.5692 87.2521 51.541 86.5631 51.5128C87.0908 50.6452 87.6233 49.7808 88.4062 48.7253C89.1924 47.6745 90.2306 46.4359 91.0716 45.1846C91.9141 43.9365 92.5577 42.6822 93.0102 41.3182C93.4612 39.9558 93.7228 38.4853 93.823 37.2576C93.9248 36.0267 93.8668 35.037 93.6664 33.944C93.4628 32.8478 93.1199 31.6514 92.6657 30.6946C92.2116 29.7378 91.6478 29.0237 91.081 28.4552C90.5125 27.8883 89.9393 27.4702 89.2581 27.2447C88.5754 27.0176 87.7877 26.9847 87.0454 27.0051C86.3047 27.0223 85.611 27.0912 85.0096 27.3136C84.4083 27.5344 83.8978 27.9087 83.5376 28.2876C83.1743 28.6682 82.9629 29.0534 82.8893 29.5937C82.8188 30.1355 82.8877 30.8292 82.7985 31.7626C82.7108 32.6959 82.4649 33.8688 82.1266 34.8429C81.7915 35.8138 81.3624 36.5858 80.7329 37.4972C80.1018 38.4117 79.2687 39.461 77.9846 40.6887C76.6989 41.9196 74.9607 43.3274 73.4245 44.6444C71.8898 45.9629 70.554 47.1891 69.5753 48.1866C68.5965 49.181 67.9717 49.9437 67.2889 50.902C66.6093 51.8636 65.8702 53.0161 65.142 53.9228C64.4138 54.8295 63.695 55.4904 62.7899 55.896C61.8816 56.3031 60.7901 56.455 59.7988 56.5599L57.0255 56.7917C56.8469 58.6584 56.67 60.525 56.576 62.7926Z" fill="white"/>
</svg>
